# xmcd
#
# Track frame offsets: 
#        150
#        21997
#        38665
#        52773
#
# Disc length: 1301 seconds
#
# Revision: 0
# Processed by: cddbd v1.5.2PL0 Copyright (c) Steve Scherf et al.
# Submitted via: ExactAudioCopy v0.99pb3
#
DISCID=25051304
DTITLE=It Hugs Back - Record Room Two
DYEAR=2010
DGENRE=Safe and Sound
TTITLE0=Standards
TTITLE1=Meltdown
TTITLE2=Sequel
TTITLE3=Both Sides Of The Sun
EXTD=
EXTT0=
EXTT1=
EXTT2=
EXTT3=
PLAYORDER=
